# xmcd
#
# Track frame offsets:
#	180
#	16021
#	30180
#	41926
#	54085
#	68627
#	78270
#	96483
#	111743
#	124649
#	137010
#	154830
#
# Disc length: 2266 seconds
#
# Revision: 0
# Processed by: cddbd v1.5.1PL0 Copyright (c) Steve Scherf et al.
# Submitted via: dBpowerAMP V4.0
#
DISCID=9408d80c
DTITLE=Kevin Duke - Rollin' On
DYEAR=1996
DGENRE=Blues
TTITLE0=Honey, What's Wrong With You
TTITLE1=Ain't No Tellin'
TTITLE2=Goin' To Brownsville
TTITLE3=Walk On
TTITLE4=Satisfied
TTITLE5=Goin' down The Road
TTITLE6=Ramblin' On My Mind
TTITLE7=Frankie
TTITLE8=13 Question Method
TTITLE9=Rollin' And Tumblin'
TTITLE10=Boogie Chillun'
TTITLE11=Dark Was The Night
EXTD=
EXTT0=
EXTT1=
EXTT2=
EXTT3=
EXTT4=
EXTT5=
EXTT6=
EXTT7=
EXTT8=
EXTT9=
EXTT10=
EXTT11=
PLAYORDER=
